<?xml version="1.0" encoding="utf-8"?><svg xmlns="http://www.w3.org/2000/svg" xmlns:xlink="http://www.w3.org/1999/xlink" width="1917" height="628" preserveAspectRatio="xMidYMid" viewBox="0 0 1917 628" style="z-index:1;margin-right:-2px;display:block;animation-play-state:paused" ><g transform="translate(958.5,314) scale(-1,1) translate(-958.5,-314)" style="transform:matrix(-1, 0, 0, 1, 1917, 0);animation-play-state:paused" ><linearGradient id="lg-0.3809036888816697" x1="0" x2="1" y1="0" y2="0" style="animation-play-state:paused" ><stop stop-color="#0093e9" offset="0" style="animation-play-state:paused" ></stop>

  
<stop stop-color="#80d0c7" offset="1" style="animation-play-state:paused" ></stop></linearGradient>
<path d="M 0 0 L 0 420.389 Q 191.7 59.6734 383.4 44.6167 T 766.8 -360.07 T 1150.2 -714.524 T 1533.6 -1067.27 T 1917 -1507.04 L 1917 0 Z" fill="url(#lg-0.3809036888816697)" opacity="0.4" style="opacity:0.4;animation-play-state:paused" ></path>
<path d="M 0 0 L 0 447.259 Q 191.7 187.796 383.4 157.784 T 766.8 -224.835 T 1150.2 -583.264 T 1533.6 -879.5 T 1917 -1287.93 L 1917 0 Z" fill="url(#lg-0.3809036888816697)" opacity="0.4" style="opacity:0.4;animation-play-state:paused" ></path>
<path d="M 0 0 L 0 448.243 Q 191.7 104.699 383.4 67.1395 T 766.8 -212.6 T 1150.2 -651.315 T 1533.6 -998.258 T 1917 -1306.71 L 1917 0 Z" fill="url(#lg-0.3809036888816697)" opacity="0.4" style="opacity:0.4;animation-play-state:paused" ></path></g></svg>