<?xml version="1.0" encoding="utf-8"?><svg xmlns="http://www.w3.org/2000/svg" xmlns:xlink="http://www.w3.org/1999/xlink" width="1917" height="628" preserveAspectRatio="xMidYMid" viewBox="0 0 1917 628" style="z-index:1;margin-right:-2px;display:block;animation-play-state:paused" ><g transform="translate(958.5,314) scale(1,-1) translate(-958.5,-314)" style="transform:matrix(1, 0, 0, -1, 0, 628);animation-play-state:paused" ><linearGradient id="lg-0.2258897083534681" x1="0" x2="1" y1="0" y2="0" style="animation-play-state:paused" ><stop stop-color="#0093e9" offset="0" style="animation-play-state:paused" ></stop>

  
<stop stop-color="#80d0c7" offset="1" style="animation-play-state:paused" ></stop></linearGradient>
<path d="M 0 0 L 0 462.984 Q 191.7 162.354 383.4 142.771 T 766.8 -133.553 T 1150.2 -436.246 T 1533.6 -783.832 T 1917 -1091.81 L 1917 0 Z" fill="url(#lg-0.2258897083534681)" opacity="0.4" style="opacity:0.4;animation-play-state:paused" ></path>
<path d="M 0 0 L 0 416.051 Q 191.7 245.112 383.4 214.789 T 766.8 -134.073 T 1150.2 -397.649 T 1533.6 -701.13 T 1917 -945.964 L 1917 0 Z" fill="url(#lg-0.2258897083534681)" opacity="0.4" style="opacity:0.4;animation-play-state:paused" ></path>
<path d="M 0 0 L 0 500.861 Q 191.7 165.064 383.4 112.585 T 766.8 -141.47 T 1150.2 -441.98 T 1533.6 -828.851 T 1917 -1097.98 L 1917 0 Z" fill="url(#lg-0.2258897083534681)" opacity="0.4" style="opacity:0.4;animation-play-state:paused" ></path></g></svg>